<svg xmlns="http://www.w3.org/2000/svg" viewBox="0 0 46 11" height="11" width="46" preserveAspectRatio="xMidYMid meet" class="" fill="none">
    <ellipse cx="21" cy="1.00488" rx="1" ry="1.00122" fill="#9690B0" fill-opacity="0.29"></ellipse>
    <ellipse cx="17" cy="1.00488" rx="1" ry="1.00122" fill="#9690B0" fill-opacity="0.29"></ellipse>
    <ellipse cx="13" cy="1.00488" rx="1" ry="1.00122" fill="#9690B0" fill-opacity="0.29"></ellipse>
    <ellipse cx="21" cy="5.0097" rx="1" ry="1.00122" fill="#9690B0" fill-opacity="0.29"></ellipse>
    <ellipse cx="21" cy="9.01459" rx="1" ry="1.00122" fill="#9690B0" fill-opacity="0.29"></ellipse>
    <ellipse cx="17" cy="5.0097" rx="1" ry="1.00122" fill="#9690B0" fill-opacity="0.29"></ellipse>
    <ellipse cx="13" cy="5.0097" rx="1" ry="1.00122" fill="#9690B0" fill-opacity="0.29"></ellipse>
    <ellipse cx="17" cy="9.01459" rx="1" ry="1.00122" fill="#9690B0" fill-opacity="0.29"></ellipse>
    <ellipse cx="13" cy="9.01459" rx="1" ry="1.00122" fill="#9690B0" fill-opacity="0.29"></ellipse>
    <ellipse cx="9" cy="1.00488" rx="1" ry="1.00122" fill="#9690B0" fill-opacity="0.29"></ellipse>
    <ellipse cx="5" cy="1.00488" rx="1" ry="1.00122" fill="#9690B0" fill-opacity="0.29"></ellipse>
    <ellipse cx="1" cy="1.00488" rx="1" ry="1.00122" fill="#9690B0" fill-opacity="0.29"></ellipse>
    <ellipse cx="9" cy="5.0097" rx="1" ry="1.00122" fill="#9690B0" fill-opacity="0.29"></ellipse>
    <ellipse cx="9" cy="9.01459" rx="1" ry="1.00122" fill="#9690B0" fill-opacity="0.29"></ellipse>
    <ellipse cx="5" cy="5.0097" rx="1" ry="1.00122" fill="#9690B0" fill-opacity="0.29"></ellipse>
    <ellipse cx="1" cy="5.0097" rx="1" ry="1.00122" fill="#9690B0" fill-opacity="0.29"></ellipse>
    <ellipse cx="5" cy="9.01459" rx="1" ry="1.00122" fill="#9690B0" fill-opacity="0.29"></ellipse>
    <ellipse cx="1" cy="9.01459" rx="1" ry="1.00122" fill="#9690B0" fill-opacity="0.29"></ellipse>
    <ellipse cx="33" cy="1.00488" rx="1" ry="1.00122" fill="#9690B0" fill-opacity="0.29"></ellipse>
    <ellipse cx="29" cy="1.00488" rx="1" ry="1.00122" fill="#9690B0" fill-opacity="0.29"></ellipse>
    <ellipse cx="25" cy="1.00488" rx="1" ry="1.00122" fill="#9690B0" fill-opacity="0.29"></ellipse>
    <ellipse cx="33" cy="5.0097" rx="1" ry="1.00122" fill="#9690B0" fill-opacity="0.29"></ellipse>
    <ellipse cx="33" cy="9.01459" rx="1" ry="1.00122" fill="#9690B0" fill-opacity="0.29"></ellipse>
    <ellipse cx="29" cy="5.0097" rx="1" ry="1.00122" fill="#9690B0" fill-opacity="0.29"></ellipse>
    <ellipse cx="25" cy="5.0097" rx="1" ry="1.00122" fill="#9690B0" fill-opacity="0.29"></ellipse>
    <ellipse cx="29" cy="9.01459" rx="1" ry="1.00122" fill="#9690B0" fill-opacity="0.29"></ellipse>
    <ellipse cx="25" cy="9.01459" rx="1" ry="1.00122" fill="#9690B0" fill-opacity="0.29"></ellipse>
    <ellipse cx="45" cy="1.00488" rx="1" ry="1.00122" fill="#9690B0" fill-opacity="0.29"></ellipse>
    <ellipse cx="41" cy="1.00488" rx="1" ry="1.00122" fill="#9690B0" fill-opacity="0.29"></ellipse>
    <ellipse cx="37" cy="1.00488" rx="1" ry="1.00122" fill="#9690B0" fill-opacity="0.29"></ellipse>
    <ellipse cx="45" cy="5.0097" rx="1" ry="1.00122" fill="#9690B0" fill-opacity="0.29"></ellipse>
    <ellipse cx="45" cy="9.01459" rx="1" ry="1.00122" fill="#9690B0" fill-opacity="0.29"></ellipse>
    <ellipse cx="41" cy="5.0097" rx="1" ry="1.00122" fill="#9690B0" fill-opacity="0.29"></ellipse>
    <ellipse cx="37" cy="5.0097" rx="1" ry="1.00122" fill="#9690B0" fill-opacity="0.29"></ellipse>
    <ellipse cx="41" cy="9.01459" rx="1" ry="1.00122" fill="#9690B0" fill-opacity="0.29"></ellipse>
    <ellipse cx="37" cy="9.01459" rx="1" ry="1.00122" fill="#9690B0" fill-opacity="0.29"></ellipse>
</svg>